<svg width="24" height="24" viewBox="0 0 24 24" fill="none" xmlns="http://www.w3.org/2000/svg">
<path d="M18.6593 2.15925C18.8659 1.94076 19.1143 1.76592 19.3897 1.64507C19.6651 1.52421 19.9619 1.45978 20.2626 1.4556C20.5633 1.45142 20.8618 1.50756 21.1405 1.62072C21.4191 1.73387 21.6722 1.90174 21.8849 2.11439C22.0975 2.32705 22.2654 2.58018 22.3786 2.85882C22.4917 3.13746 22.5479 3.43596 22.5437 3.73667C22.5395 4.03738 22.4751 4.3342 22.3542 4.60959C22.2333 4.88498 22.0585 5.13334 21.84 5.34L15.2475 11.9325C15.2388 11.9412 15.2319 11.9516 15.2271 11.9629C15.2224 11.9743 15.22 11.9865 15.22 11.9989C15.22 12.0112 15.2224 12.0234 15.2271 12.0348C15.2319 12.0462 15.2388 12.0565 15.2475 12.0652L21.84 18.6578C22.0518 18.866 22.2202 19.1142 22.3356 19.3879C22.4509 19.6616 22.511 19.9554 22.5122 20.2524C22.5135 20.5494 22.4559 20.8437 22.3428 21.1184C22.2297 21.393 22.0634 21.6426 21.8534 21.8526C21.6434 22.0627 21.3939 22.2291 21.1193 22.3422C20.8447 22.4553 20.5503 22.513 20.2533 22.5118C19.9563 22.5106 19.6625 22.4507 19.3888 22.3354C19.115 22.2201 18.8669 22.0517 18.6585 21.84L12.066 15.2475C12.0573 15.2388 12.047 15.2318 12.0356 15.2271C12.0242 15.2224 12.012 15.22 11.9996 15.22C11.9873 15.22 11.9751 15.2224 11.9637 15.2271C11.9523 15.2318 11.942 15.2388 11.9333 15.2475L5.34077 21.84C5.13249 22.0518 4.88435 22.2202 4.61066 22.3355C4.33696 22.4509 4.04313 22.5109 3.74612 22.5122C3.44911 22.5134 3.15479 22.4559 2.88014 22.3428C2.60548 22.2297 2.35594 22.0634 2.14589 21.8534C1.93584 21.6434 1.76945 21.3939 1.65632 21.1193C1.54318 20.8446 1.48554 20.5503 1.48671 20.2533C1.48789 19.9563 1.54786 19.6625 1.66316 19.3887C1.77846 19.115 1.94682 18.8668 2.15852 18.6585L8.75102 12.066C8.75975 12.0573 8.76668 12.0469 8.77141 12.0356C8.77613 12.0242 8.77856 12.012 8.77856 11.9996C8.77856 11.9873 8.77613 11.9751 8.77141 11.9637C8.76668 11.9523 8.75975 11.942 8.75102 11.9332L2.15852 5.34075C1.74219 4.91768 1.5099 4.34724 1.51225 3.75368C1.51459 3.16012 1.75139 2.59154 2.17105 2.17178C2.59072 1.75201 3.15925 1.51509 3.7528 1.5126C4.34636 1.51011 4.91686 1.74227 5.34002 2.1585L11.9325 8.751C11.9412 8.75973 11.9516 8.76666 11.963 8.77138C11.9744 8.77611 11.9866 8.77854 11.9989 8.77854C12.0112 8.77854 12.0234 8.77611 12.0348 8.77138C12.0462 8.76666 12.0566 8.75973 12.0653 8.751L18.6578 2.1585L18.6593 2.15925Z" fill="white"/>
</svg>
